<svg xmlns="http://www.w3.org/2000/svg" width="66" height="62.577" viewBox="0 0 66 62.577"><g transform="translate(-759.707 -466.982)"><path d="M854.411,478.658a3.394,3.394,0,1,0-4.8,4.8l12,12a3.394,3.394,0,1,0,4.8-4.8Z" transform="translate(-49.844 -5.991)" fill="#fff"/><path d="M775.238,543.366l21,21,2.16-9.839-13.439-13.439Z" transform="translate(-8.706 -41.541)" fill="#fff"/><path d="M787.05,506.624l-22.078,5.039a6.738,6.738,0,0,0-3.24,11.4l21,21a6.721,6.721,0,0,0,11.279-3.36l5.039-22.078L809.367,508.3l-12-12Zm2.64,2.237a2.443,2.443,0,1,1-2.443,2.443A2.385,2.385,0,0,1,789.69,508.861Zm1.08,31a3.379,3.379,0,0,1-5.76,1.68l-20.878-20.878a3.429,3.429,0,0,1,1.68-5.76l11.519-2.64,7.591,7.591a2.427,2.427,0,0,1,2.059-1.146,2.457,2.457,0,0,1,2.443,2.443,2.512,2.512,0,0,1-1.165,2.04l5.151,5.151Zm9.924-31.627a2.443,2.443,0,1,1-2.443,2.443A2.386,2.386,0,0,1,800.694,508.234Z" transform="translate(0 -16.438)" fill="#fff"/><path d="M877.771,471.839a2.443,2.443,0,1,0-2.791-2.037A2.443,2.443,0,0,0,877.771,471.839Z" transform="translate(-64.603 0)" fill="#fff"/><path d="M903.641,471.049a2.443,2.443,0,1,0-2.037,2.791A2.443,2.443,0,0,0,903.641,471.049Z" transform="translate(-77.963 -1.122)" fill="#fff"/><path d="M886.33,488.834a2.362,2.362,0,0,0-2.055,2.676,2.458,2.458,0,0,0,2.791,2.037C890.17,493.062,889.434,488.349,886.33,488.834Z" transform="translate(-69.815 -12.231)" fill="#fff"/></g></svg>