<svg xmlns="http://www.w3.org/2000/svg" width="66" height="64" viewBox="0 0 66 64"><g transform="translate(-1042.931 -475.48)"><rect width="24" height="4" transform="translate(1050.931 535.48)" fill="#fff"/><path d="M1096.331,496.88a1.816,1.816,0,0,0,.6-1.4,2.151,2.151,0,0,0-2-2v-6a4.012,4.012,0,0,0-4-4h-22a4.012,4.012,0,0,0-4,4v6h-4v-14h22v2h4v-2a4.011,4.011,0,0,0-4-4h-22a4.012,4.012,0,0,0-4,4v14a2.151,2.151,0,0,0-2,2,1.816,1.816,0,0,0,.6,1.4,20.017,20.017,0,0,0-4.6,34.6h24a20.017,20.017,0,0,0-4.6-34.6,1.816,1.816,0,0,0,.6-1.4,2.151,2.151,0,0,0-2-2v-6h22v6h-4v-4h-4v4a2.151,2.151,0,0,0-2,2,1.817,1.817,0,0,0,.6,1.4,23.329,23.329,0,0,0-2.2,1,23.974,23.974,0,0,1,1.4,33.6h20.2a20.016,20.016,0,0,0-4.6-34.6Z" fill="#fff"/><rect width="18" height="4" transform="translate(1082.931 535.48)" fill="#fff"/></g></svg>