<svg xmlns="http://www.w3.org/2000/svg" width="66" height="66" viewBox="0 0 66 66"><g transform="translate(-501.644 -475.48)"><path d="M563.519,487.443a6.008,6.008,0,0,0,4.125-5.775,6.195,6.195,0,0,0-12.375-.412l-16.294,4.331c-3.3-3.3-8.869-1.65-10.312,2.681l-14.437,3.919a11.54,11.54,0,0,1,1.031-5.156,1.909,1.909,0,0,0-.825-2.475l-7.219-4.331a2.039,2.039,0,0,0-2.887.825,23.376,23.376,0,0,0-1.857,16.706,24.967,24.967,0,0,0,9.282,14.025,2.1,2.1,0,0,0,3.093-.619l4.331-7.013a1.955,1.955,0,0,0-.412-2.681,11.017,11.017,0,0,1-3.506-5.157l14.025-3.712h0L516.7,535.292H501.644v6.187h66v-6.187h-4.125ZM544.957,532.4l-7.425-7.425,4.125-4.125Zm-6.394-21.863h-7.837l3.919-13.612Zm1.237,4.125.413,1.857-5.569,5.569-5.775-5.775.412-1.65Zm-12.168,6.187,4.125,4.125-7.425,7.425Zm7.013,7.013,7.425,7.425h-14.85Zm5.569-35.062a6.667,6.667,0,0,0,.619-3.3l15.675-4.125a7.42,7.42,0,0,0,2.887,2.269v47.644h-6.806Z" transform="translate(0 0)" fill="#fff"/></g></svg>